<svg width="696" height="159" viewBox="0 0 696 159" fill="none" xmlns="http://www.w3.org/2000/svg">
<path d="M70.0727 11.1794C38.607 11.1794 13.1096 33.0382 13.1096 60.0088C13.1096 86.9716 38.6069 108.838 70.0727 108.838C101.548 108.838 127.049 86.9716 127.049 60.0088C127.05 33.0382 101.548 11.1794 70.0727 11.1794Z" fill="#27323A"/>
<path d="M70.0727 102.979C42.4347 102.979 19.9457 83.6986 19.9457 60.0089C19.9457 36.3114 42.4347 17.0391 70.0727 17.0391C97.7197 17.0391 120.213 36.3114 120.213 60.0089C120.213 83.6984 97.7198 102.979 70.0727 102.979Z" fill="url(#paint0_linear_56_522)"/>
<path d="M104.8 37.6C104.8 41.4667 104.033 44.8667 102.5 47.8C100.967 50.6667 99 53.1667 96.6 55.3C94.2 57.4333 91.7 59.2333 89.1 60.7C87.5 61.5667 85.7333 62.5667 83.8 63.7C81.9333 64.7667 79.9333 65.7 77.8 66.5C75.6667 67.3 73.3667 67.7 70.9 67.7C70.2333 71.1667 69.1667 74.4333 67.7 77.5C66.2333 80.5 64.3333 83.1667 62 85.5C61.4 86.1 60.6667 86.7333 59.8 87.4C59 88 58.1 88.5667 57.1 89.1C58.6333 89.6333 59.9333 90.0667 61 90.4C62.1333 90.8 63.5 91.2667 65.1 91.8C66.9 92.4 68.4333 93.0667 69.7 93.8C70.9667 94.5333 72.2 95.2667 73.4 96C74.6 96.7333 75.9333 97.3333 77.4 97.8C78.8667 98.2667 80.7 98.5 82.9 98.5C85.0333 98.5 87.1333 98.1667 89.2 97.5C91.3333 96.9 93.1 95.9333 94.5 94.6C95.9667 93.3333 96.7 91.6667 96.7 89.6C96.7 87.6667 96.0333 86.2667 94.7 85.4C93.3667 84.4667 91.7333 84 89.8 84C88.3333 84 87.1333 84.6667 86.2 86C85.2667 87.2667 84.6 88.3667 84.2 89.3C83.5333 90.7 82.9667 91.4 82.5 91.4C81.9667 91.4 81.7 90.8333 81.7 89.7C81.7 89.1 81.8 88.4333 82 87.7C82.2667 86.9667 82.6333 86.2667 83.1 85.6C83.8333 84.5333 84.7 83.6667 85.7 83C86.7 82.3333 88.0667 82 89.8 82C92.2667 82 94.5 82.7 96.5 84.1C98.5 85.4333 99.5 87.3333 99.5 89.8C99.5 92.2 98.7667 94.3 97.3 96.1C95.9 97.9 94.0667 99.3 91.8 100.3C89.6 101.3 87.2667 101.8 84.8 101.8C81.8 101.8 79.4 101.533 77.6 101C75.8 100.533 74.1 99.9 72.5 99.1C70.9667 98.3667 69.0333 97.6333 66.7 96.9C65.0333 96.3667 63.0667 95.5 60.8 94.3C58.5333 93.1667 56.5333 92.2667 54.8 91.6C54.6 91.4667 54.3667 91.3333 54.1 91.2C53.9 91.1333 53.6667 91.0333 53.4 90.9C51.5333 91.7 49.5667 92.3333 47.5 92.8C45.5 93.3333 43.5333 93.6 41.6 93.6C40.9333 93.6 40.1 93.3333 39.1 92.8C38.1667 92.3333 37.3333 91.7 36.6 90.9C35.9333 90.1 35.6 89.2333 35.6 88.3C35.6 87.7 35.8333 87 36.3 86.2C36.8333 85.3333 37.4667 84.6 38.2 84C39 83.4 39.7667 83.1 40.5 83.1C42.0333 83.1 43.8667 83.5 46 84.3C48.2 85.1 50.2333 85.9667 52.1 86.9C52.7667 86.2333 53.4 85.6 54 85C54.6 84.3333 55.2 83.7 55.8 83.1C57.8 81.1 59.5 78.7333 60.9 76C62.3 73.2667 63.5333 70.4 64.6 67.4C61.5333 67.1333 58.5333 66.6333 55.6 65.9C52.6667 65.1 50 64 47.6 62.6C45.2667 61.2 43.3667 59.4667 41.9 57.4C40.5 55.2667 39.8 52.7333 39.8 49.8C39.8 46.6667 40.6 43.7333 42.2 41C43.8667 38.2 46.0333 35.9333 48.7 34.2C51.3667 32.4667 54.2333 31.6 57.3 31.6C61.1 31.6 64.1333 32.2667 66.4 33.6C68.6667 34.9333 69.8 37.5 69.8 41.3C69.8 43.1 69.2333 44.8667 68.1 46.6C67.0333 48.2667 65.9333 49.4667 64.8 50.2C64.5333 50.3333 64.3667 50.4 64.3 50.4C63.7 50.4 63.4 50.0667 63.4 49.4C63.4 49 63.5333 48.7 63.8 48.5C64.5333 47.9 65.3667 46.9333 66.3 45.6C67.3 44.2667 67.8 42.8333 67.8 41.3C67.8 38.1667 66.8333 36.1 64.9 35.1C62.9667 34.1 60.4333 33.6 57.3 33.6C54.5667 33.6 52.2667 34.4 50.4 36C48.5333 37.6 47.1333 39.6667 46.2 42.2C45.2667 44.6667 44.8 47.3333 44.8 50.2C44.8 53.7333 45.7667 56.5667 47.7 58.7C49.6333 60.8333 52.1667 62.4333 55.3 63.5C58.4333 64.5 61.7667 65.1667 65.3 65.5C65.7667 64.1667 66.2 62.8667 66.6 61.6C67 60.3333 67.4 59.0667 67.8 57.8C69.3333 53.3333 70.7 48.8667 71.9 44.4C73.1667 39.8667 74.7667 35.6667 76.7 31.8C77.5667 30 78.5667 28.2333 79.7 26.5C80.9 24.7 82.3333 23.2 84 22C85.7333 20.8 87.8667 20.2 90.4 20.2C91.8667 20.2 93.3333 20.3 94.8 20.5C96.2667 20.7 97.4333 21.1333 98.3 21.8C100.367 23.4667 101.967 25.6 103.1 28.2C104.233 30.7333 104.8 33.8667 104.8 37.6ZM97.8 37.6C98.1333 36.2667 98.3667 35.0667 98.5 34C98.7 32.9333 98.8 31.9667 98.8 31.1C98.8 28.5667 97.7333 26.4667 95.6 24.8C94.9333 24.2667 94.2333 23.9667 93.5 23.9C92.8333 23.7667 91.9 23.7 90.7 23.7C87.2333 23.7 84.6 24.6333 82.8 26.5C81.0667 28.3 79.6333 30.3667 78.5 32.7C76.5667 36.5667 75.1 40.7 74.1 45.1C73.1 49.4333 72.3333 54.7667 71.8 61.1C71.7333 61.9 71.6667 62.7 71.6 63.5C71.5333 64.2333 71.4333 64.9667 71.3 65.7C73.5667 65.6333 75.6667 65.2333 77.6 64.5C79.5333 63.7 81.3667 62.7667 83.1 61.7C84.8333 60.6333 86.4667 59.6667 88 58.8C89.8 57.8 91.2667 56.4333 92.4 54.7C93.6 52.9 94.5 50.9667 95.1 48.9C95.7667 46.7667 96.3 44.7 96.7 42.7C97.1 40.7 97.4667 39 97.8 37.6ZM49.5 89C48.3 88.4 47.0667 87.8667 45.8 87.4C44.5333 86.9333 43.3333 86.7 42.2 86.7C41.4667 86.7 40.7667 86.9 40.1 87.3C39.5 87.7 39.2 88.2 39.2 88.8C39.2 89.6667 39.4333 90.3333 39.9 90.8C40.3667 91.3333 40.9333 91.6 41.6 91.6C43.2 91.6 44.6333 91.3333 45.9 90.8C47.2333 90.3333 48.4333 89.7333 49.5 89Z" fill="white"/>
<path d="M91.8006 34.5871C87.332 31.3367 83.1127 28.2619 82.8016 25.6221C82.7925 25.5916 82.7569 25.5764 82.7482 25.5537C82.5969 24.5998 81.68 23.8599 80.5314 23.8599C79.2763 23.8599 78.2528 24.7372 78.2528 25.813V65.4945C74.8794 62.9764 69.8949 61.5041 64.0733 61.5041C61.492 61.5041 58.8661 61.8014 56.267 62.3967C49.2708 63.9986 43.3157 67.6077 40.316 72.0482C38.3044 75.0314 37.7347 78.1671 38.6603 81.1121C40.4409 86.8649 47.8106 90.7331 56.9879 90.7331C59.5783 90.7331 62.2043 90.4279 64.8033 89.8327C70.5088 88.5279 75.4759 85.9415 78.7959 82.5539C81.5194 79.777 82.8638 76.7174 82.8014 73.719C82.8014 73.7037 82.8101 73.6885 82.8101 73.6732V50.2047C85.1334 48.8465 87.4391 48.7933 89.9935 50.2047C95.895 53.4548 100.248 62.8394 99.2241 66.036C99.215 66.059 99.2419 66.0821 99.2332 66.1047C99.0103 66.9133 99.3754 67.7833 100.257 68.2333C100.621 68.4165 101.022 68.5079 101.423 68.5079C101.817 68.5075 102.205 68.4194 102.548 68.2523C102.891 68.0852 103.178 67.8448 103.381 67.5544C114.703 51.2422 101.467 41.6138 91.8006 34.5871Z" fill="#27323A"/>
<path d="M75.307 80.0441C72.583 82.8211 68.4348 84.9575 63.6286 86.0638C61.4118 86.5674 59.1778 86.8267 56.988 86.8267C49.9026 86.8267 44.3039 84.1258 43.0579 80.105C42.4613 78.1749 42.871 76.0691 44.2597 74.0013C46.6628 70.4383 51.5939 67.5086 57.442 66.1734C59.6496 65.6698 61.8837 65.4105 64.0735 65.4105C71.1589 65.4105 76.7576 68.1114 78.0128 72.1244C78.7961 74.6497 77.8436 77.4651 75.307 80.0441Z" fill="url(#paint1_linear_56_522)"/>
<path d="M92.4592 46.9164C89.2641 45.1538 85.9435 44.803 82.8102 45.7871V32.8855C84.5462 34.4192 86.6289 35.9449 88.8543 37.5626C97.0167 43.4983 105.366 49.6098 102.589 59.2381C100.711 54.5154 96.9901 49.4114 92.4592 46.9164Z" fill="#27323A"/>
<path d="M57.2285 85.0567C53.9526 85.0567 51.1576 84.3013 49.2349 83.3173C46.9384 82.1497 45.5411 80.5398 45.2831 78.793C45.1318 77.7246 46.0127 76.748 47.2678 76.6109C48.434 76.4964 49.6532 77.2363 49.8045 78.3121C49.8582 78.6859 50.3564 79.3496 51.5673 79.9602C53.748 81.0739 57.9495 81.8141 62.6136 80.2501C63.7798 79.861 65.106 80.3567 65.56 81.3642C66.0225 82.3634 65.4442 83.5002 64.2693 83.8893C61.7947 84.7209 59.4003 85.0567 57.2285 85.0567ZM49.0215 41.8275C55.0564 40.3243 61.4209 40.9349 66.9309 43.5439C68.0342 44.0553 68.444 45.2456 67.8296 46.1991C67.2335 47.1374 65.8358 47.4808 64.7409 46.962C60.2901 44.8639 55.1544 44.3681 50.2944 45.581C45.4253 46.7865 41.3928 49.5483 38.9451 53.3632C38.3399 54.3093 36.9513 54.6449 35.8564 54.1261C34.7527 53.6073 34.352 52.425 34.9573 51.4787C37.9841 46.7562 42.9867 43.3303 49.0215 41.8275Z" fill="#27323A"/>
<path d="M51.9055 48.8773C56.2492 47.9082 60.7619 48.4421 64.6429 50.3801C65.7198 50.922 66.094 52.1196 65.4528 53.0505C64.8212 53.9814 63.4234 54.2943 62.3464 53.7525C59.5157 52.3411 56.2313 51.9521 53.0625 52.6614C49.9114 53.3634 47.259 55.0877 45.6034 57.4987C44.9712 58.437 43.5741 58.7499 42.4879 58.208C41.3928 57.6667 41.0368 56.4612 41.669 55.5302C43.9387 52.2188 47.5705 49.8539 51.9055 48.8773Z" fill="#27323A"/>
<path d="M180.888 131.232C180.184 131.232 179.608 131.008 179.16 130.56C178.648 130.176 178.392 129.632 178.392 128.928C178.392 128.032 178.84 126.976 179.736 125.76C180.568 124.544 181.976 123.2 183.96 121.728C184.28 120.896 184.504 120.128 184.632 119.424C184.824 118.72 184.984 117.952 185.112 117.12C185.56 114.304 186.36 111.456 187.512 108.576C188.664 105.632 189.816 102.88 190.968 100.32C189.752 100.064 188.536 99.104 187.32 97.44C186.168 95.776 185.592 94.016 185.592 92.16C185.592 91.712 185.688 90.976 185.88 89.952C186.072 88.864 186.392 88.32 186.84 88.32C187.416 88.32 187.704 88.8 187.704 89.76C187.704 90.72 187.704 91.392 187.704 91.776C187.704 93.12 188.088 94.464 188.856 95.808C189.624 97.152 190.552 98.112 191.64 98.688C192.728 96.32 194.104 93.536 195.768 90.336C197.432 87.072 199.32 83.648 201.432 80.064C203.544 76.416 205.848 72.864 208.344 69.408C210.84 65.952 213.464 62.816 216.216 60C219.032 57.184 221.944 54.944 224.952 53.28C227.96 51.616 231.032 50.784 234.168 50.784C236.728 50.784 238.584 51.456 239.736 52.8C240.888 54.08 241.464 55.84 241.464 58.08C241.464 60.448 240.888 63.168 239.736 66.24C238.584 69.312 236.952 72.512 234.84 75.84C232.792 79.104 230.392 82.304 227.64 85.44C224.888 88.512 221.88 91.328 218.616 93.888C215.352 96.384 211.96 98.368 208.44 99.84C204.92 101.312 201.4 102.048 197.88 102.048C197.176 102.048 196.472 102.016 195.768 101.952C195.064 101.824 194.392 101.632 193.752 101.376C192.472 104.384 191.288 107.392 190.2 110.4C189.112 113.408 188.248 116.544 187.608 119.808C192.536 116.8 197.88 114.624 203.64 113.28C209.4 111.936 215.16 111.264 220.92 111.264C222.456 111.264 224.216 111.552 226.2 112.128C228.184 112.64 229.88 113.472 231.288 114.624C232.76 115.776 233.496 117.344 233.496 119.328C233.496 120.928 233.336 121.728 233.016 121.728C232.696 121.728 232.312 121.152 231.864 120C230.968 117.696 229.56 116.256 227.64 115.68C225.72 115.04 223.608 114.72 221.304 114.72C217.4 114.72 214.04 114.912 211.224 115.296C208.472 115.616 205.912 116.128 203.544 116.832C201.24 117.536 198.84 118.4 196.344 119.424C193.848 120.448 190.904 121.632 187.512 122.976C187 125.92 186.04 128.032 184.632 129.312C183.288 130.592 182.04 131.232 180.888 131.232ZM197.4 100.32C200.792 100.32 204.152 99.584 207.48 98.112C210.872 96.576 214.104 94.56 217.176 92.064C220.312 89.504 223.192 86.688 225.816 83.616C228.44 80.544 230.712 77.44 232.632 74.304C234.616 71.104 236.152 68.096 237.24 65.28C238.328 62.4 238.872 59.968 238.872 57.984C238.872 56.512 238.52 55.36 237.816 54.528C237.176 53.696 236.152 53.28 234.744 53.28C232.376 53.28 229.88 54.112 227.256 55.776C224.696 57.44 222.072 59.68 219.384 62.496C216.696 65.312 214.072 68.416 211.512 71.808C209.016 75.2 206.648 78.656 204.408 82.176C202.232 85.632 200.28 88.928 198.552 92.064C196.824 95.136 195.48 97.728 194.52 99.84C194.84 100.032 195.32 100.16 195.96 100.224C196.6 100.288 197.08 100.32 197.4 100.32ZM252.747 121.824C251.019 121.824 249.451 121.216 248.043 120C247.019 119.104 246.283 118.048 245.835 116.832C245.387 115.616 245.163 114.304 245.163 112.896C245.163 111.808 245.259 110.72 245.451 109.632C245.707 108.48 245.995 107.392 246.315 106.368C246.763 104.96 247.339 103.68 248.043 102.528C248.747 101.376 249.355 100.48 249.867 99.84C250.187 98.368 250.795 96.64 251.691 94.656C252.587 92.672 253.675 90.752 254.955 88.896C256.299 87.04 257.803 85.504 259.467 84.288C261.131 83.008 262.859 82.368 264.651 82.368C266.763 82.368 268.587 83.328 270.123 85.248C271.723 87.104 272.651 89.856 272.907 93.504C272.907 93.76 272.907 94.016 272.907 94.272C272.971 94.528 273.003 94.816 273.003 95.136C273.003 98.784 272.107 102.432 270.315 106.08C268.587 109.664 266.507 112.736 264.075 115.296C262.667 116.832 260.939 118.304 258.891 119.712C256.843 121.12 254.795 121.824 252.747 121.824ZM253.227 119.808C254.955 119.808 256.811 119.008 258.795 117.408C261.035 115.616 262.955 113.344 264.555 110.592C266.155 107.84 267.403 104.928 268.299 101.856C269.259 98.72 269.835 95.68 270.027 92.736C270.155 91.072 269.931 89.472 269.355 87.936C268.779 86.4 267.563 85.408 265.707 84.96C265.195 84.832 264.779 84.768 264.459 84.768C263.243 84.768 261.995 85.152 260.715 85.92C259.499 86.688 258.379 87.648 257.355 88.8C256.395 89.952 255.627 91.104 255.051 92.256C254.539 93.344 254.315 94.24 254.379 94.944C254.763 94.56 255.403 94.016 256.299 93.312C257.259 92.544 258.315 91.84 259.467 91.2C260.619 90.56 261.611 90.24 262.443 90.24C263.083 90.24 263.531 90.432 263.787 90.816C263.979 90.944 264.011 91.2 263.883 91.584C263.051 91.328 262.091 91.488 261.003 92.064C259.979 92.64 258.923 93.44 257.835 94.464C256.811 95.488 255.883 96.512 255.051 97.536C254.219 98.56 253.611 99.36 253.227 99.936C252.971 100.192 252.683 100.512 252.363 100.896C252.107 101.28 251.947 101.696 251.883 102.144C251.819 102.272 251.787 102.56 251.787 103.008C251.787 103.84 252.043 104.864 252.555 106.08C253.131 107.296 254.155 108.384 255.627 109.344C257.099 110.304 259.147 110.848 261.771 110.976C261.835 111.04 261.867 111.104 261.867 111.168C261.867 111.424 261.611 111.616 261.099 111.744C260.651 111.808 260.363 111.84 260.235 111.84C260.043 111.904 259.851 111.936 259.659 111.936C259.467 111.936 259.275 111.936 259.083 111.936C256.907 111.936 255.115 111.136 253.707 109.536C252.299 107.872 251.243 106.048 250.539 104.064C248.939 107.52 248.139 110.56 248.139 113.184C248.139 115.296 248.619 116.928 249.579 118.08C250.539 119.232 251.755 119.808 253.227 119.808ZM305.767 121.248C304.935 121.248 304.199 120.736 303.559 119.712C302.919 118.624 302.599 116.576 302.599 113.568C302.599 111.2 302.791 108.608 303.175 105.792C303.559 102.912 303.975 100.064 304.423 97.248C304.935 94.432 305.383 91.936 305.767 89.76C306.151 87.52 306.343 85.888 306.343 84.864C306.343 83.072 305.799 82.176 304.711 82.176C303.687 82.176 302.631 82.688 301.543 83.712C300.519 84.736 299.527 85.984 298.567 87.456C297.671 88.928 296.871 90.368 296.167 91.776C295.527 93.12 295.111 94.112 294.919 94.752C294.023 97.248 293.383 99.744 292.999 102.24C292.615 104.672 292.423 107.2 292.423 109.824C292.423 110.912 292.455 112.032 292.519 113.184C292.647 114.336 292.743 115.52 292.807 116.736C292.935 117.376 292.743 118.176 292.231 119.136C291.783 120.032 291.239 120.48 290.599 120.48C290.151 120.48 289.767 120.192 289.447 119.616C289.127 119.04 288.903 118.528 288.775 118.08C288.519 117.312 288.327 116.512 288.199 115.68C288.071 114.784 287.943 114.016 287.815 113.376C287.367 110.752 286.951 108.096 286.567 105.408C286.183 102.656 285.639 100 284.935 97.44C284.743 96.736 284.487 96 284.167 95.232C283.911 94.4 283.495 93.728 282.919 93.216C282.791 93.088 282.599 92.96 282.343 92.832C282.087 92.64 281.959 92.48 281.959 92.352C281.959 92.096 282.311 91.968 283.015 91.968C283.783 91.968 284.551 92.352 285.319 93.12C286.087 93.888 286.791 94.912 287.431 96.192C288.199 97.792 288.839 99.488 289.351 101.28C289.927 103.072 290.375 104.512 290.695 105.6C291.079 103.296 291.495 101.248 291.943 99.456C292.391 97.92 292.999 96.096 293.767 93.984C294.535 91.808 295.495 89.696 296.647 87.648C297.799 85.536 299.175 83.808 300.775 82.464C302.375 81.056 304.231 80.352 306.343 80.352C309.415 80.352 310.951 82.144 310.951 85.728C310.951 87.584 310.631 89.632 309.991 91.872C309.351 94.048 308.647 96.064 307.879 97.92C307.175 99.776 306.695 101.056 306.439 101.76C306.119 102.656 305.767 103.872 305.383 105.408C305.063 106.944 304.775 108.544 304.519 110.208C304.327 111.872 304.231 113.408 304.231 114.816C304.231 116.032 304.359 117.056 304.615 117.888C304.935 118.656 305.415 119.04 306.055 119.04C306.695 119.04 307.271 118.752 307.783 118.176C308.295 117.536 308.711 116.96 309.031 116.448C309.415 115.936 309.607 115.84 309.607 116.16C309.735 117.12 309.383 118.208 308.551 119.424C307.783 120.64 306.855 121.248 305.767 121.248ZM323.06 158.112C320.5 158.112 318.324 157.344 316.532 155.808C314.676 154.336 313.748 152.352 313.748 149.856C313.748 147.36 314.932 144.448 317.3 141.12C319.668 137.792 323.668 134.336 329.3 130.752C330.58 129.856 331.924 129.056 333.332 128.352C334.804 127.648 336.308 126.912 337.844 126.144C338.228 125.952 338.516 125.856 338.708 125.856C338.964 125.856 339.092 125.952 339.092 126.144C339.092 126.592 338.644 127.072 337.748 127.584C334.676 129.12 332.052 130.72 329.876 132.384C327.764 134.112 325.812 136.128 324.02 138.432C323.06 139.648 322.036 141.056 320.948 142.656C319.924 144.32 319.06 145.952 318.356 147.552C317.588 149.152 317.204 150.592 317.204 151.872C317.204 154.56 318.484 155.904 321.044 155.904C322.132 155.904 323.412 155.584 324.884 154.944C326.356 154.368 327.956 153.408 329.684 152.064C334.036 148.672 337.108 144.896 338.9 140.736C340.692 136.64 341.588 131.84 341.588 126.336C341.588 122.24 341.204 117.696 340.436 112.704C339.732 107.584 339.348 102.688 339.284 98.016C338.964 100 338.42 102.4 337.652 105.216C336.948 107.968 336.084 110.592 335.06 113.088C334.036 115.584 332.884 117.728 331.604 119.52C330.388 121.312 328.82 122.208 326.9 122.208C325.556 122.208 324.404 121.536 323.444 120.192C322.548 118.848 322.1 116.8 322.1 114.048C322.1 112 322.452 109.568 323.156 106.752C323.86 103.936 324.82 101.216 326.036 98.592C327.252 95.904 328.596 93.696 330.068 91.968C331.604 90.176 333.14 89.28 334.676 89.28C335.764 89.28 336.532 89.728 336.98 90.624C337.492 91.456 337.748 92.32 337.748 93.216C337.748 93.92 337.62 94.528 337.364 95.04C337.108 95.552 336.724 95.808 336.212 95.808C335.7 95.744 335.316 95.52 335.06 95.136C334.868 94.688 334.676 94.272 334.484 93.888C334.292 93.44 333.94 93.216 333.428 93.216C332.404 93.216 331.412 93.888 330.452 95.232C329.556 96.512 328.724 98.208 327.956 100.32C327.252 102.368 326.676 104.544 326.228 106.848C325.844 109.152 325.652 111.264 325.652 113.184C325.652 114.976 325.844 116.448 326.228 117.6C326.676 118.752 327.348 119.36 328.244 119.424C329.332 119.488 330.388 118.784 331.412 117.312C332.436 115.84 333.364 113.952 334.196 111.648C335.092 109.344 335.86 106.912 336.5 104.352C337.204 101.728 337.78 99.296 338.228 97.056C338.74 94.752 339.092 92.96 339.284 91.68C339.796 88.288 340.276 86.144 340.724 85.248C341.172 84.288 341.652 83.808 342.164 83.808C342.612 83.808 342.996 84.224 343.316 85.056C343.7 85.888 343.892 86.656 343.892 87.36C343.892 87.872 343.86 88.224 343.796 88.416C343.028 92.64 342.644 96.96 342.644 101.376C342.644 103.232 342.708 105.088 342.836 106.944C342.964 108.736 343.124 110.528 343.316 112.32C343.7 116.032 343.892 119.488 343.892 122.688C343.892 129.216 343.22 134.72 341.876 139.2C340.596 143.744 338.9 147.392 336.788 150.144C334.676 152.96 332.404 154.976 329.972 156.192C327.604 157.472 325.3 158.112 323.06 158.112ZM362.146 119.232C361.314 119.232 360.61 118.816 360.034 117.984C359.522 117.152 359.298 115.808 359.362 113.952C359.362 113.056 359.618 111.584 360.13 109.536C360.642 107.424 361.186 105.088 361.762 102.528C362.402 99.968 362.946 97.472 363.394 95.04C363.906 92.608 364.162 90.624 364.162 89.088C364.162 88.384 364.098 87.808 363.97 87.36C363.842 86.848 363.522 86.592 363.01 86.592C362.626 86.592 362.274 86.784 361.954 87.168C361.634 87.488 361.314 87.808 360.994 88.128C360.546 88.704 360.29 88.992 360.226 88.992C360.162 88.992 360.13 88.896 360.13 88.704C360.13 87.936 360.418 87.104 360.994 86.208C361.634 85.248 362.37 84.768 363.202 84.768C364.226 84.768 364.962 85.28 365.41 86.304C365.858 87.264 366.082 88.64 366.082 90.432C366.082 92.416 365.858 94.656 365.41 97.152C364.962 99.648 364.482 101.984 363.97 104.16C363.714 105.184 363.49 106.432 363.298 107.904C363.106 109.376 363.01 110.816 363.01 112.224C363.01 113.44 363.106 114.464 363.298 115.296C363.554 116.064 364.002 116.448 364.642 116.448C365.154 116.448 365.762 116.16 366.466 115.584C367.234 114.944 368.13 113.888 369.154 112.416C370.626 110.368 371.938 108.032 373.09 105.408C374.306 102.72 375.426 100.288 376.45 98.112C376.834 97.216 377.314 96.768 377.89 96.768C379.362 96.768 380.098 97.568 380.098 99.168C380.098 100.384 379.906 101.92 379.522 103.776C379.202 105.568 379.042 107.296 379.042 108.96C379.042 111.968 379.618 113.472 380.77 113.472C381.346 113.472 381.922 113.12 382.498 112.416C383.138 111.648 383.49 111.2 383.554 111.072C383.938 110.624 384.29 110.4 384.61 110.4C384.994 110.4 385.186 110.624 385.186 111.072C385.186 111.904 384.706 112.8 383.746 113.76C382.786 114.72 381.762 115.2 380.674 115.2C379.65 115.2 378.818 114.848 378.178 114.144C377.602 113.376 377.058 112.384 376.546 111.168C375.97 109.696 375.682 108.416 375.682 107.328C375.682 106.24 375.618 105.184 375.49 104.16C375.042 105.696 374.274 107.328 373.186 109.056C372.162 110.784 370.978 112.448 369.634 114.048C368.354 115.584 367.042 116.832 365.698 117.792C364.354 118.752 363.17 119.232 362.146 119.232ZM402.634 121.248C400.33 121.248 398.314 119.904 396.586 117.216C394.922 114.464 394.09 110.144 394.09 104.256C394.09 100.416 394.57 97.344 395.53 95.04C396.49 92.672 397.674 90.944 399.082 89.856C400.49 88.768 401.834 88.224 403.114 88.224C404.394 88.224 405.482 88.672 406.378 89.568C407.274 90.4 407.722 91.616 407.722 93.216C407.722 94.752 407.274 96.384 406.378 98.112C405.482 99.776 404.394 101.312 403.114 102.72C401.898 104.064 400.682 104.96 399.466 105.408C399.21 105.536 398.89 105.6 398.506 105.6C398.25 105.6 398.122 105.504 398.122 105.312C398.122 104.8 398.634 104.224 399.658 103.584C400.938 102.688 402.154 101.344 403.306 99.552C404.458 97.696 405.034 96.064 405.034 94.656C405.034 93.824 404.842 93.184 404.458 92.736C404.074 92.224 403.626 91.968 403.114 91.968C402.154 91.968 401.098 92.736 399.946 94.272C398.858 95.744 398.058 98.304 397.546 101.952C397.418 102.976 397.29 103.968 397.162 104.928C397.098 105.824 397.066 106.72 397.066 107.616C397.066 111.2 397.61 114.016 398.698 116.064C399.786 118.048 401.226 119.04 403.018 119.04C404.554 119.04 406.282 118.144 408.202 116.352C410.122 114.496 412.01 111.616 413.866 107.712C414.314 106.688 414.826 106.176 415.402 106.176C415.786 106.176 415.978 106.432 415.978 106.944C415.978 107.392 415.85 107.872 415.594 108.384C413.93 112.48 411.914 115.648 409.546 117.888C407.178 120.128 404.874 121.248 402.634 121.248ZM443.073 121.248C442.241 121.248 441.505 120.736 440.865 119.712C440.225 118.624 439.905 116.576 439.905 113.568C439.905 111.2 440.097 108.608 440.481 105.792C440.865 102.912 441.281 100.064 441.729 97.248C442.241 94.432 442.689 91.936 443.073 89.76C443.457 87.52 443.649 85.888 443.649 84.864C443.649 83.072 443.105 82.176 442.017 82.176C440.993 82.176 439.937 82.688 438.849 83.712C437.825 84.736 436.833 85.984 435.873 87.456C434.977 88.928 434.177 90.368 433.473 91.776C432.833 93.12 432.417 94.112 432.225 94.752C431.329 97.248 430.689 99.744 430.305 102.24C429.921 104.672 429.729 107.2 429.729 109.824C429.729 110.912 429.761 112.032 429.825 113.184C429.953 114.336 430.049 115.52 430.113 116.736C430.241 117.376 430.049 118.176 429.537 119.136C429.089 120.032 428.545 120.48 427.905 120.48C427.457 120.48 427.073 120.192 426.753 119.616C426.433 119.04 426.209 118.528 426.081 118.08C425.825 117.312 425.633 116.512 425.505 115.68C425.377 114.784 425.249 114.016 425.121 113.376C424.673 110.752 424.257 108.096 423.873 105.408C423.489 102.656 422.945 100 422.241 97.44C422.049 96.736 421.793 96 421.473 95.232C421.217 94.4 420.801 93.728 420.225 93.216C420.097 93.088 419.905 92.96 419.649 92.832C419.393 92.64 419.265 92.48 419.265 92.352C419.265 92.096 419.617 91.968 420.321 91.968C421.089 91.968 421.857 92.352 422.625 93.12C423.393 93.888 424.097 94.912 424.737 96.192C425.505 97.792 426.145 99.488 426.657 101.28C427.233 103.072 427.681 104.512 428.001 105.6C428.385 103.296 428.801 101.248 429.249 99.456C429.697 97.92 430.305 96.096 431.073 93.984C431.841 91.808 432.801 89.696 433.953 87.648C435.105 85.536 436.481 83.808 438.081 82.464C439.681 81.056 441.537 80.352 443.649 80.352C446.721 80.352 448.257 82.144 448.257 85.728C448.257 87.584 447.937 89.632 447.297 91.872C446.657 94.048 445.953 96.064 445.185 97.92C444.481 99.776 444.001 101.056 443.745 101.76C443.425 102.656 443.073 103.872 442.689 105.408C442.369 106.944 442.081 108.544 441.825 110.208C441.633 111.872 441.537 113.408 441.537 114.816C441.537 116.032 441.665 117.056 441.921 117.888C442.241 118.656 442.721 119.04 443.361 119.04C444.001 119.04 444.577 118.752 445.089 118.176C445.601 117.536 446.017 116.96 446.337 116.448C446.721 115.936 446.913 115.84 446.913 116.16C447.041 117.12 446.689 118.208 445.857 119.424C445.089 120.64 444.161 121.248 443.073 121.248ZM468.334 121.248C466.03 121.248 464.014 119.904 462.286 117.216C460.622 114.464 459.79 110.144 459.79 104.256C459.79 100.416 460.27 97.344 461.23 95.04C462.19 92.672 463.374 90.944 464.782 89.856C466.19 88.768 467.534 88.224 468.814 88.224C470.094 88.224 471.182 88.672 472.078 89.568C472.974 90.4 473.422 91.616 473.422 93.216C473.422 94.752 472.974 96.384 472.078 98.112C471.182 99.776 470.094 101.312 468.814 102.72C467.598 104.064 466.382 104.96 465.166 105.408C464.91 105.536 464.59 105.6 464.206 105.6C463.95 105.6 463.822 105.504 463.822 105.312C463.822 104.8 464.334 104.224 465.358 103.584C466.638 102.688 467.854 101.344 469.006 99.552C470.158 97.696 470.734 96.064 470.734 94.656C470.734 93.824 470.542 93.184 470.158 92.736C469.774 92.224 469.326 91.968 468.814 91.968C467.854 91.968 466.798 92.736 465.646 94.272C464.558 95.744 463.758 98.304 463.246 101.952C463.118 102.976 462.99 103.968 462.862 104.928C462.798 105.824 462.766 106.72 462.766 107.616C462.766 111.2 463.31 114.016 464.398 116.064C465.486 118.048 466.926 119.04 468.718 119.04C470.254 119.04 471.982 118.144 473.902 116.352C475.822 114.496 477.71 111.616 479.566 107.712C480.014 106.688 480.526 106.176 481.102 106.176C481.486 106.176 481.678 106.432 481.678 106.944C481.678 107.392 481.55 107.872 481.294 108.384C479.63 112.48 477.614 115.648 475.246 117.888C472.878 120.128 470.574 121.248 468.334 121.248ZM498.744 124.128C497.912 124.128 497.304 123.84 496.92 123.264C496.6 122.752 496.44 122.24 496.44 121.728C496.44 120.704 496.888 119.648 497.784 118.56C498.104 118.176 498.552 117.664 499.128 117.024C499.704 116.32 500.12 115.776 500.376 115.392C499.544 114.24 498.424 113.184 497.016 112.224C495.608 111.264 494.232 110.048 492.888 108.576C491.672 107.232 490.648 105.6 489.816 103.68C488.984 101.696 488.568 99.808 488.568 98.016C488.568 95.904 489.048 93.888 490.008 91.968C490.968 90.048 492.152 88.384 493.56 86.976C495.096 85.44 496.792 84.224 498.648 83.328C500.504 82.368 502.424 81.888 504.408 81.888C505.752 81.888 507.064 82.208 508.344 82.848C509.624 83.488 510.264 84.544 510.264 86.016C510.264 87.744 509.88 88.608 509.112 88.608C508.792 88.608 508.568 88.288 508.44 87.648C508.376 87.328 508.344 87.008 508.344 86.688C508.344 86.304 508.344 86.048 508.344 85.92C508.344 85.28 508.056 84.736 507.48 84.288C506.904 83.776 506.264 83.52 505.56 83.52C504.088 83.52 502.456 84.096 500.664 85.248C498.872 86.4 497.368 87.744 496.152 89.28C494.936 90.88 493.944 92.704 493.176 94.752C492.408 96.736 492.024 98.656 492.024 100.512C492.024 102.816 492.536 104.8 493.56 106.464C494.584 108.128 495.8 109.6 497.208 110.88C498.68 112.16 499.992 113.408 501.144 114.624C501.72 113.92 502.328 113.248 502.968 112.608C503.672 111.968 504.312 111.456 504.888 111.072C505.4 110.752 505.752 110.592 505.944 110.592C506.136 110.592 506.232 110.688 506.232 110.88C506.232 111.2 505.944 111.584 505.368 112.032C505.24 112.16 504.856 112.544 504.216 113.184C503.64 113.76 502.936 114.496 502.104 115.392C502.616 115.968 503.032 116.576 503.352 117.216C503.672 117.856 503.832 118.56 503.832 119.328C503.832 120.352 503.256 121.408 502.104 122.496C500.952 123.584 499.832 124.128 498.744 124.128ZM499.8 121.536C500.248 121.536 500.664 121.12 501.048 120.288C501.496 119.52 501.72 118.752 501.72 117.984C501.72 117.6 501.656 117.248 501.528 116.928C501.4 116.608 501.304 116.416 501.24 116.352C500.728 116.992 500.248 117.696 499.8 118.464C499.416 119.168 499.224 119.808 499.224 120.384C499.224 121.152 499.416 121.536 499.8 121.536ZM515.122 126.912C514.802 126.912 514.642 126.656 514.642 126.144C514.642 125.696 514.802 125.152 515.122 124.512C515.442 123.872 515.858 123.36 516.37 122.976C516.882 122.656 517.426 122.304 518.002 121.92C518.514 121.6 519.026 121.312 519.538 121.056C519.474 120.928 519.442 120.704 519.442 120.384C519.442 119.872 519.602 119.616 519.922 119.616C520.114 119.616 520.402 119.84 520.786 120.288C525.778 117.536 530.642 115.52 535.378 114.24V113.952C535.378 112.16 534.898 110.496 533.938 108.96C533.042 107.424 531.89 105.856 530.482 104.256C529.074 102.656 527.634 100.896 526.162 98.976C524.754 97.056 523.474 94.88 522.322 92.448C521.234 89.952 520.53 87.04 520.21 83.712C520.146 83.328 520.114 82.944 520.114 82.56C520.114 82.176 520.114 81.792 520.114 81.408C520.114 77.312 521.042 73.6 522.898 70.272C524.754 66.944 527.154 64.096 530.098 61.728C533.106 59.296 536.338 57.408 539.794 56.064C542.546 54.976 545.682 54.432 549.202 54.432C550.482 54.432 551.698 54.528 552.85 54.72C556.242 55.36 558.61 56.48 559.954 58.08C561.298 59.68 561.97 61.28 561.97 62.88C561.97 64.096 561.65 65.184 561.01 66.144C560.37 67.104 559.922 67.584 559.666 67.584C559.474 67.584 559.378 67.456 559.378 67.2C559.378 67.072 559.41 66.88 559.474 66.624C559.602 66.304 559.698 65.984 559.762 65.664C559.954 65.152 560.082 64.704 560.146 64.32C560.21 63.936 560.242 63.552 560.242 63.168C560.242 61.12 559.282 59.616 557.362 58.656C555.506 57.632 553.522 57.12 551.41 57.12C551.154 57.12 550.866 57.12 550.546 57.12C550.226 57.12 549.906 57.152 549.586 57.216C545.554 57.792 541.746 59.264 538.162 61.632C534.578 64 531.538 67.104 529.042 70.944C526.61 74.72 525.01 79.072 524.242 84C524.178 84.448 524.114 84.896 524.05 85.344C524.05 85.792 524.05 86.208 524.05 86.592C524.05 89.6 524.69 92.352 525.97 94.848C527.25 97.28 528.754 99.552 530.482 101.664C532.274 103.776 533.97 105.824 535.57 107.808C537.17 109.728 538.258 111.648 538.834 113.568C540.114 113.312 541.362 113.152 542.578 113.088C543.794 113.024 544.978 113.024 546.13 113.088C547.026 113.216 547.474 113.472 547.474 113.856C547.474 114.24 546.834 114.432 545.554 114.432C544.658 114.432 543.666 114.496 542.578 114.624C541.49 114.688 540.338 114.88 539.122 115.2C539.186 115.392 539.218 115.584 539.218 115.776C539.218 115.968 539.218 116.128 539.218 116.256C539.218 116.896 539.122 117.568 538.93 118.272C538.098 120.832 536.594 122.72 534.418 123.936C532.242 125.152 530.034 125.76 527.794 125.76C525.618 125.76 523.794 125.312 522.322 124.416C521.81 124.16 521.33 123.808 520.882 123.36C520.05 123.808 519.218 124.32 518.386 124.896C517.49 125.472 516.626 126.048 515.794 126.624C515.538 126.816 515.314 126.912 515.122 126.912ZM526.93 124.032C528.786 124.032 530.61 123.424 532.402 122.208C534.194 121.056 535.186 119.104 535.378 116.352C531.154 117.824 526.802 119.872 522.322 122.496C523.346 123.52 524.882 124.032 526.93 124.032ZM564.375 123.36C562.263 123.36 560.535 122.72 559.191 121.44C557.911 120.16 556.951 118.528 556.311 116.544C555.671 114.496 555.351 112.352 555.351 110.112C555.351 108.768 555.479 107.488 555.735 106.272C555.991 105.056 556.247 104.064 556.503 103.296C556.439 102.848 556.375 102.4 556.311 101.952C556.311 101.44 556.311 100.928 556.311 100.416C556.311 98.56 556.503 96.544 556.887 94.368C557.271 92.192 557.879 90.112 558.711 88.128C559.607 86.144 560.695 84.544 561.975 83.328C563.319 82.048 564.951 81.408 566.871 81.408C568.535 81.408 570.167 82.112 571.767 83.52C573.367 84.864 574.775 86.848 575.991 89.472C576.695 90.944 577.175 92.544 577.431 94.272C577.751 95.936 577.911 97.632 577.911 99.36C577.911 101.728 577.655 104.096 577.143 106.464C576.695 108.768 576.023 110.944 575.127 112.992C574.487 114.464 573.623 116.032 572.535 117.696C571.511 119.296 570.327 120.64 568.983 121.728C567.639 122.816 566.103 123.36 564.375 123.36ZM564.855 121.248C567.031 121.248 569.047 119.744 570.903 116.736C572.247 114.624 573.207 112.224 573.783 109.536C574.359 106.784 574.647 104.032 574.647 101.28C574.647 99.232 574.519 97.248 574.263 95.328C574.007 93.408 573.623 91.552 573.111 89.76C572.663 88.16 571.895 86.752 570.807 85.536C569.783 84.256 568.311 83.712 566.391 83.904C564.855 84.032 563.511 84.8 562.359 86.208C561.207 87.616 560.311 89.216 559.671 91.008C559.095 92.736 558.807 94.24 558.807 95.52C558.807 96.224 558.903 96.768 559.095 97.152C559.287 96.64 559.767 95.808 560.535 94.656C561.303 93.44 562.167 92.352 563.127 91.392C564.087 90.368 564.983 89.856 565.815 89.856C566.519 89.856 566.871 90.144 566.871 90.72C566.039 90.784 565.207 91.296 564.375 92.256C563.607 93.152 562.871 94.24 562.167 95.52C561.527 96.8 560.983 98.08 560.535 99.36C560.151 100.576 559.863 101.536 559.671 102.24C559.607 102.496 559.511 102.816 559.383 103.2C559.255 103.584 559.191 103.968 559.191 104.352C559.191 104.8 559.447 105.536 559.959 106.56C560.471 107.52 561.303 108.416 562.455 109.248C563.607 110.08 565.175 110.496 567.159 110.496C567.735 110.496 568.343 110.432 568.983 110.304C569.623 110.176 570.231 110.048 570.807 109.92L571.479 109.728C571.607 109.728 571.671 109.792 571.671 109.92C571.671 110.112 571.447 110.368 570.999 110.688C570.615 110.944 570.263 111.136 569.943 111.264C569.047 111.712 568.055 111.936 566.967 111.936C565.367 111.936 563.831 111.456 562.359 110.496C560.951 109.472 559.703 108.32 558.615 107.04C558.551 107.552 558.519 108.064 558.519 108.576C558.519 109.024 558.519 109.472 558.519 109.92C558.519 113.632 559.159 116.448 560.439 118.368C561.719 120.288 563.191 121.248 564.855 121.248ZM593.315 119.232C592.483 119.232 591.779 118.816 591.203 117.984C590.691 117.152 590.467 115.808 590.531 113.952C590.531 113.056 590.787 111.584 591.299 109.536C591.811 107.424 592.355 105.088 592.931 102.528C593.571 99.968 594.115 97.472 594.563 95.04C595.075 92.608 595.331 90.624 595.331 89.088C595.331 88.384 595.267 87.808 595.139 87.36C595.011 86.848 594.691 86.592 594.179 86.592C593.795 86.592 593.443 86.784 593.123 87.168C592.803 87.488 592.483 87.808 592.163 88.128C591.715 88.704 591.459 88.992 591.395 88.992C591.331 88.992 591.299 88.896 591.299 88.704C591.299 87.936 591.587 87.104 592.163 86.208C592.803 85.248 593.539 84.768 594.371 84.768C595.395 84.768 596.131 85.28 596.579 86.304C597.027 87.264 597.251 88.64 597.251 90.432C597.251 92.416 597.027 94.656 596.579 97.152C596.131 99.648 595.651 101.984 595.139 104.16C594.883 105.184 594.659 106.432 594.467 107.904C594.275 109.376 594.179 110.816 594.179 112.224C594.179 113.44 594.275 114.464 594.467 115.296C594.723 116.064 595.171 116.448 595.811 116.448C596.323 116.448 596.931 116.16 597.635 115.584C598.403 114.944 599.299 113.888 600.323 112.416C601.795 110.368 603.107 108.032 604.259 105.408C605.475 102.72 606.595 100.288 607.619 98.112C608.003 97.216 608.483 96.768 609.059 96.768C610.531 96.768 611.267 97.568 611.267 99.168C611.267 100.384 611.075 101.92 610.691 103.776C610.371 105.568 610.211 107.296 610.211 108.96C610.211 111.968 610.787 113.472 611.939 113.472C612.515 113.472 613.091 113.12 613.667 112.416C614.307 111.648 614.659 111.2 614.723 111.072C615.107 110.624 615.459 110.4 615.779 110.4C616.163 110.4 616.355 110.624 616.355 111.072C616.355 111.904 615.875 112.8 614.915 113.76C613.955 114.72 612.931 115.2 611.843 115.2C610.819 115.2 609.987 114.848 609.347 114.144C608.771 113.376 608.227 112.384 607.715 111.168C607.139 109.696 606.851 108.416 606.851 107.328C606.851 106.24 606.787 105.184 606.659 104.16C606.211 105.696 605.443 107.328 604.355 109.056C603.331 110.784 602.147 112.448 600.803 114.048C599.523 115.584 598.211 116.832 596.867 117.792C595.523 118.752 594.339 119.232 593.315 119.232ZM645.611 121.248C644.779 121.248 644.043 120.736 643.403 119.712C642.763 118.624 642.443 116.576 642.443 113.568C642.443 111.2 642.635 108.608 643.019 105.792C643.403 102.912 643.819 100.064 644.267 97.248C644.779 94.432 645.227 91.936 645.611 89.76C645.995 87.52 646.187 85.888 646.187 84.864C646.187 83.072 645.643 82.176 644.555 82.176C643.531 82.176 642.475 82.688 641.387 83.712C640.363 84.736 639.371 85.984 638.411 87.456C637.515 88.928 636.715 90.368 636.011 91.776C635.371 93.12 634.955 94.112 634.763 94.752C633.867 97.248 633.227 99.744 632.843 102.24C632.459 104.672 632.267 107.2 632.267 109.824C632.267 110.912 632.299 112.032 632.363 113.184C632.491 114.336 632.587 115.52 632.651 116.736C632.779 117.376 632.587 118.176 632.075 119.136C631.627 120.032 631.083 120.48 630.443 120.48C629.995 120.48 629.611 120.192 629.291 119.616C628.971 119.04 628.747 118.528 628.619 118.08C628.363 117.312 628.171 116.512 628.043 115.68C627.915 114.784 627.787 114.016 627.659 113.376C627.211 110.752 626.795 108.096 626.411 105.408C626.027 102.656 625.483 100 624.779 97.44C624.587 96.736 624.331 96 624.011 95.232C623.755 94.4 623.339 93.728 622.763 93.216C622.635 93.088 622.443 92.96 622.187 92.832C621.931 92.64 621.803 92.48 621.803 92.352C621.803 92.096 622.155 91.968 622.859 91.968C623.627 91.968 624.395 92.352 625.163 93.12C625.931 93.888 626.635 94.912 627.275 96.192C628.043 97.792 628.683 99.488 629.195 101.28C629.771 103.072 630.219 104.512 630.539 105.6C630.923 103.296 631.339 101.248 631.787 99.456C632.235 97.92 632.843 96.096 633.611 93.984C634.379 91.808 635.339 89.696 636.491 87.648C637.643 85.536 639.019 83.808 640.619 82.464C642.219 81.056 644.075 80.352 646.187 80.352C649.259 80.352 650.795 82.144 650.795 85.728C650.795 87.584 650.475 89.632 649.835 91.872C649.195 94.048 648.491 96.064 647.723 97.92C647.019 99.776 646.539 101.056 646.283 101.76C645.963 102.656 645.611 103.872 645.227 105.408C644.907 106.944 644.619 108.544 644.363 110.208C644.171 111.872 644.075 113.408 644.075 114.816C644.075 116.032 644.203 117.056 644.459 117.888C644.779 118.656 645.259 119.04 645.899 119.04C646.539 119.04 647.115 118.752 647.627 118.176C648.139 117.536 648.555 116.96 648.875 116.448C649.259 115.936 649.451 115.84 649.451 116.16C649.579 117.12 649.227 118.208 648.395 119.424C647.627 120.64 646.699 121.248 645.611 121.248ZM665.495 124.512C663.959 124.512 662.807 123.84 662.039 122.496C661.271 121.216 660.887 119.584 660.887 117.6C660.887 116.192 661.175 114.432 661.751 112.32C662.327 110.208 663.127 108 664.151 105.696C665.175 103.392 666.327 101.248 667.607 99.264C668.887 97.216 670.199 95.584 671.543 94.368C672.951 93.088 674.327 92.448 675.671 92.448C676.759 92.448 677.527 92.864 677.975 93.696C678.487 94.464 678.743 95.296 678.743 96.192C678.743 96.96 678.583 97.664 678.263 98.304C678.007 98.88 677.623 99.168 677.111 99.168C676.599 99.168 676.215 98.944 675.959 98.496C675.767 97.984 675.575 97.472 675.383 96.96C675.255 96.448 674.903 96.192 674.327 96.192C673.175 96.192 672.023 96.928 670.871 98.4C669.719 99.872 668.663 101.728 667.703 103.968C666.743 106.208 665.975 108.544 665.399 110.976C664.823 113.344 664.535 115.456 664.535 117.312C664.535 118.656 664.695 119.712 665.015 120.48C665.399 121.312 666.007 121.728 666.839 121.728C667.927 121.728 669.015 121.056 670.103 119.712C671.255 118.304 672.375 116.512 673.463 114.336C674.551 112.096 675.543 109.76 676.439 107.328C677.399 104.896 678.199 102.624 678.839 100.512C679.543 98.336 680.087 96.608 680.471 95.328C680.983 90.848 681.591 86.336 682.295 81.792C683.063 77.248 684.183 72.832 685.655 68.544C685.847 67.84 686.135 67.232 686.519 66.72C686.967 66.208 687.415 65.952 687.863 65.952C688.375 65.952 688.791 66.304 689.111 67.008C689.495 67.712 689.687 68.512 689.687 69.408C689.687 70.112 689.559 70.848 689.303 71.616C689.047 72.384 688.727 73.408 688.343 74.688C687.895 76.224 687.319 78.272 686.615 80.832C685.975 83.328 685.303 86.176 684.599 89.376C683.895 92.512 683.287 95.872 682.775 99.456C682.327 102.976 682.103 106.496 682.103 110.016C682.103 112.704 682.295 114.592 682.679 115.68C683.063 116.768 683.575 117.312 684.215 117.312C684.919 117.312 685.687 116.864 686.519 115.968C687.415 115.072 688.279 113.984 689.111 112.704C690.007 111.424 690.807 110.144 691.511 108.864C692.215 107.52 692.759 106.464 693.143 105.696C693.847 104.288 694.391 103.584 694.775 103.584C695.031 103.584 695.159 103.872 695.159 104.448C695.159 104.896 695.063 105.376 694.871 105.888C694.487 106.72 694.231 107.36 694.103 107.808C693.975 108.192 693.815 108.576 693.623 108.96C693.495 109.344 693.175 109.952 692.663 110.784C692.215 111.552 691.511 112.608 690.551 113.952C689.591 115.232 688.503 116.416 687.287 117.504C686.071 118.528 684.855 119.04 683.639 119.04C682.423 119.04 681.495 118.528 680.855 117.504C680.279 116.48 679.895 115.168 679.703 113.568C679.575 111.904 679.511 110.208 679.511 108.48C679.511 106.368 679.607 104.128 679.799 101.76C679.351 103.296 678.743 105.12 677.975 107.232C677.207 109.28 676.343 111.36 675.383 113.472C674.423 115.584 673.399 117.504 672.311 119.232C671.415 120.64 670.423 121.856 669.335 122.88C668.247 123.968 666.967 124.512 665.495 124.512Z" fill="black"/>
<defs>
<linearGradient id="paint0_linear_56_522" x1="70.0795" y1="17.0391" x2="70.0795" y2="102.979" gradientUnits="userSpaceOnUse">
<stop offset="0.416667" stop-color="#C71515"/>
<stop offset="0.989583" stop-color="white" stop-opacity="0.46"/>
</linearGradient>
<linearGradient id="paint1_linear_56_522" x1="60.5358" y1="65.4105" x2="60.5358" y2="86.8267" gradientUnits="userSpaceOnUse">
<stop stop-color="#6060DE"/>
<stop offset="1" stop-color="#6060DE" stop-opacity="0"/>
</linearGradient>
</defs>
</svg>
