<svg width="140" height="120" viewBox="0 0 140 120" fill="none" xmlns="http://www.w3.org/2000/svg">
<path d="M70.0726 11.1794C38.6069 11.1794 13.1095 33.0382 13.1095 60.0088C13.1095 86.9715 38.6068 108.838 70.0726 108.838C101.548 108.838 127.049 86.9715 127.049 60.0088C127.049 33.0382 101.548 11.1794 70.0726 11.1794Z" fill="#27323A"/>
<path d="M70.0727 102.979C42.4347 102.979 19.9457 83.6986 19.9457 60.0089C19.9457 36.3114 42.4347 17.0391 70.0727 17.0391C97.7197 17.0391 120.213 36.3114 120.213 60.0089C120.213 83.6984 97.7198 102.979 70.0727 102.979Z" fill="url(#paint0_linear_53_375)"/>
<path d="M104.8 37.6C104.8 41.4667 104.033 44.8667 102.5 47.8C100.967 50.6667 99 53.1667 96.6 55.3C94.2 57.4333 91.7 59.2333 89.1 60.7C87.5 61.5667 85.7333 62.5667 83.8 63.7C81.9333 64.7667 79.9333 65.7 77.8 66.5C75.6667 67.3 73.3667 67.7 70.9 67.7C70.2333 71.1667 69.1667 74.4333 67.7 77.5C66.2333 80.5 64.3333 83.1667 62 85.5C61.4 86.1 60.6667 86.7333 59.8 87.4C59 88 58.1 88.5667 57.1 89.1C58.6333 89.6333 59.9333 90.0667 61 90.4C62.1333 90.8 63.5 91.2667 65.1 91.8C66.9 92.4 68.4333 93.0667 69.7 93.8C70.9667 94.5333 72.2 95.2667 73.4 96C74.6 96.7333 75.9333 97.3333 77.4 97.8C78.8667 98.2667 80.7 98.5 82.9 98.5C85.0333 98.5 87.1333 98.1667 89.2 97.5C91.3333 96.9 93.1 95.9333 94.5 94.6C95.9667 93.3333 96.7 91.6667 96.7 89.6C96.7 87.6667 96.0333 86.2667 94.7 85.4C93.3667 84.4667 91.7333 84 89.8 84C88.3333 84 87.1333 84.6667 86.2 86C85.2667 87.2667 84.6 88.3667 84.2 89.3C83.5333 90.7 82.9667 91.4 82.5 91.4C81.9667 91.4 81.7 90.8333 81.7 89.7C81.7 89.1 81.8 88.4333 82 87.7C82.2667 86.9667 82.6333 86.2667 83.1 85.6C83.8333 84.5333 84.7 83.6667 85.7 83C86.7 82.3333 88.0667 82 89.8 82C92.2667 82 94.5 82.7 96.5 84.1C98.5 85.4333 99.5 87.3333 99.5 89.8C99.5 92.2 98.7667 94.3 97.3 96.1C95.9 97.9 94.0667 99.3 91.8 100.3C89.6 101.3 87.2667 101.8 84.8 101.8C81.8 101.8 79.4 101.533 77.6 101C75.8 100.533 74.1 99.9 72.5 99.1C70.9667 98.3667 69.0333 97.6333 66.7 96.9C65.0333 96.3667 63.0667 95.5 60.8 94.3C58.5333 93.1667 56.5333 92.2667 54.8 91.6C54.6 91.4667 54.3667 91.3333 54.1 91.2C53.9 91.1333 53.6667 91.0333 53.4 90.9C51.5333 91.7 49.5667 92.3333 47.5 92.8C45.5 93.3333 43.5333 93.6 41.6 93.6C40.9333 93.6 40.1 93.3333 39.1 92.8C38.1667 92.3333 37.3333 91.7 36.6 90.9C35.9333 90.1 35.6 89.2333 35.6 88.3C35.6 87.7 35.8333 87 36.3 86.2C36.8333 85.3333 37.4667 84.6 38.2 84C39 83.4 39.7667 83.1 40.5 83.1C42.0333 83.1 43.8667 83.5 46 84.3C48.2 85.1 50.2333 85.9667 52.1 86.9C52.7667 86.2333 53.4 85.6 54 85C54.6 84.3333 55.2 83.7 55.8 83.1C57.8 81.1 59.5 78.7333 60.9 76C62.3 73.2667 63.5333 70.4 64.6 67.4C61.5333 67.1333 58.5333 66.6333 55.6 65.9C52.6667 65.1 50 64 47.6 62.6C45.2667 61.2 43.3667 59.4667 41.9 57.4C40.5 55.2667 39.8 52.7333 39.8 49.8C39.8 46.6667 40.6 43.7333 42.2 41C43.8667 38.2 46.0333 35.9333 48.7 34.2C51.3667 32.4667 54.2333 31.6 57.3 31.6C61.1 31.6 64.1333 32.2667 66.4 33.6C68.6667 34.9333 69.8 37.5 69.8 41.3C69.8 43.1 69.2333 44.8667 68.1 46.6C67.0333 48.2667 65.9333 49.4667 64.8 50.2C64.5333 50.3333 64.3667 50.4 64.3 50.4C63.7 50.4 63.4 50.0667 63.4 49.4C63.4 49 63.5333 48.7 63.8 48.5C64.5333 47.9 65.3667 46.9333 66.3 45.6C67.3 44.2667 67.8 42.8333 67.8 41.3C67.8 38.1667 66.8333 36.1 64.9 35.1C62.9667 34.1 60.4333 33.6 57.3 33.6C54.5667 33.6 52.2667 34.4 50.4 36C48.5333 37.6 47.1333 39.6667 46.2 42.2C45.2667 44.6667 44.8 47.3333 44.8 50.2C44.8 53.7333 45.7667 56.5667 47.7 58.7C49.6333 60.8333 52.1667 62.4333 55.3 63.5C58.4333 64.5 61.7667 65.1667 65.3 65.5C65.7667 64.1667 66.2 62.8667 66.6 61.6C67 60.3333 67.4 59.0667 67.8 57.8C69.3333 53.3333 70.7 48.8667 71.9 44.4C73.1667 39.8667 74.7667 35.6667 76.7 31.8C77.5667 30 78.5667 28.2333 79.7 26.5C80.9 24.7 82.3333 23.2 84 22C85.7333 20.8 87.8667 20.2 90.4 20.2C91.8667 20.2 93.3333 20.3 94.8 20.5C96.2667 20.7 97.4333 21.1333 98.3 21.8C100.367 23.4667 101.967 25.6 103.1 28.2C104.233 30.7333 104.8 33.8667 104.8 37.6ZM97.8 37.6C98.1333 36.2667 98.3667 35.0667 98.5 34C98.7 32.9333 98.8 31.9667 98.8 31.1C98.8 28.5667 97.7333 26.4667 95.6 24.8C94.9333 24.2667 94.2333 23.9667 93.5 23.9C92.8333 23.7667 91.9 23.7 90.7 23.7C87.2333 23.7 84.6 24.6333 82.8 26.5C81.0667 28.3 79.6333 30.3667 78.5 32.7C76.5667 36.5667 75.1 40.7 74.1 45.1C73.1 49.4333 72.3333 54.7667 71.8 61.1C71.7333 61.9 71.6667 62.7 71.6 63.5C71.5333 64.2333 71.4333 64.9667 71.3 65.7C73.5667 65.6333 75.6667 65.2333 77.6 64.5C79.5333 63.7 81.3667 62.7667 83.1 61.7C84.8333 60.6333 86.4667 59.6667 88 58.8C89.8 57.8 91.2667 56.4333 92.4 54.7C93.6 52.9 94.5 50.9667 95.1 48.9C95.7667 46.7667 96.3 44.7 96.7 42.7C97.1 40.7 97.4667 39 97.8 37.6ZM49.5 89C48.3 88.4 47.0667 87.8667 45.8 87.4C44.5333 86.9333 43.3333 86.7 42.2 86.7C41.4667 86.7 40.7667 86.9 40.1 87.3C39.5 87.7 39.2 88.2 39.2 88.8C39.2 89.6667 39.4333 90.3333 39.9 90.8C40.3667 91.3333 40.9333 91.6 41.6 91.6C43.2 91.6 44.6333 91.3333 45.9 90.8C47.2333 90.3333 48.4333 89.7333 49.5 89Z" fill="white"/>
<path d="M91.8006 34.5871C87.332 31.3366 83.1127 28.2619 82.8016 25.622C82.7925 25.5916 82.7569 25.5763 82.7482 25.5537C82.5969 24.5998 81.68 23.8598 80.5314 23.8598C79.2763 23.8598 78.2528 24.7371 78.2528 25.8129V65.4944C74.8794 62.9764 69.8949 61.504 64.0733 61.504C61.492 61.504 58.8661 61.8014 56.267 62.3966C49.2708 63.9986 43.3157 67.6076 40.316 72.0481C38.3044 75.0313 37.7347 78.167 38.6603 81.112C40.4409 86.8649 47.8106 90.733 56.9879 90.733C59.5783 90.733 62.2043 90.4279 64.8033 89.8326C70.5088 88.5279 75.4759 85.9415 78.7959 82.5539C81.5194 79.7769 82.8638 76.7174 82.8014 73.7189C82.8014 73.7037 82.8101 73.6884 82.8101 73.6732V50.2047C85.1334 48.8464 87.4391 48.7933 89.9935 50.2047C95.895 53.4547 100.248 62.8394 99.2241 66.0359C99.215 66.059 99.2419 66.082 99.2332 66.1047C99.0103 66.9133 99.3754 67.7833 100.257 68.2332C100.621 68.4165 101.022 68.5079 101.423 68.5079C101.817 68.5074 102.205 68.4193 102.548 68.2522C102.891 68.0851 103.178 67.8447 103.381 67.5544C114.703 51.2422 101.467 41.6137 91.8006 34.5871Z" fill="#27323A"/>
<path d="M75.3069 80.0441C72.5829 82.8211 68.4348 84.9575 63.6286 86.0638C61.4118 86.5674 59.1778 86.8267 56.988 86.8267C49.9025 86.8267 44.3039 84.1258 43.0579 80.105C42.4613 78.1749 42.871 76.0691 44.2596 74.0013C46.6627 70.4383 51.5938 67.5086 57.442 66.1734C59.6495 65.6698 61.8837 65.4105 64.0734 65.4105C71.1589 65.4105 76.7575 68.1114 78.0128 72.1244C78.796 74.6497 77.8435 77.4651 75.3069 80.0441Z" fill="url(#paint1_linear_53_375)"/>
<path d="M92.4593 46.9163C89.2641 45.1537 85.9436 44.803 82.8103 45.787V32.8854C84.5462 34.4191 86.6289 35.9449 88.8544 37.5625C97.0167 43.4982 105.366 49.6098 102.589 59.2381C100.711 54.5153 96.9902 49.4113 92.4593 46.9163Z" fill="#27323A"/>
<path d="M57.2285 85.0567C53.9526 85.0567 51.1576 84.3012 49.2349 83.3172C46.9384 82.1496 45.5411 80.5398 45.2831 78.7929C45.1318 77.7245 46.0127 76.748 47.2678 76.6108C48.434 76.4964 49.6532 77.2362 49.8045 78.312C49.8582 78.6859 50.3564 79.3495 51.5673 79.9601C53.748 81.0738 57.9495 81.814 62.6136 80.25C63.7798 79.8609 65.106 80.3567 65.56 81.3641C66.0225 82.3633 65.4442 83.5001 64.2693 83.8892C61.7947 84.7208 59.4003 85.0567 57.2285 85.0567ZM49.0215 41.8274C55.0564 40.3242 61.4209 40.9349 66.9309 43.5438C68.0342 44.0552 68.444 45.2455 67.8296 46.199C67.2335 47.1373 65.8358 47.4807 64.7409 46.9619C60.2901 44.8638 55.1544 44.368 50.2944 45.581C45.4253 46.7865 41.3928 49.5482 38.9451 53.3632C38.3399 54.3093 36.9513 54.6449 35.8564 54.1261C34.7527 53.6072 34.352 52.4249 34.9573 51.4787C37.9841 46.7561 42.9867 43.3303 49.0215 41.8274Z" fill="#27323A"/>
<path d="M51.9054 48.8772C56.2491 47.9081 60.7618 48.442 64.6429 50.3801C65.7198 50.9219 66.094 52.1195 65.4527 53.0505C64.8211 53.9813 63.4233 54.2943 62.3463 53.7524C59.5157 52.341 56.2312 51.952 53.0624 52.6614C49.9114 53.3633 47.2589 55.0876 45.6033 57.4986C44.9712 58.4369 43.574 58.7498 42.4879 58.208C41.3928 57.6666 41.0368 56.4611 41.6689 55.5301C43.9387 52.2187 47.5704 49.8538 51.9054 48.8772Z" fill="#27323A"/>
<defs>
<linearGradient id="paint0_linear_53_375" x1="70.0795" y1="17.0391" x2="70.0795" y2="102.979" gradientUnits="userSpaceOnUse">
<stop offset="0.416667" stop-color="#C71515"/>
<stop offset="0.989583" stop-color="white" stop-opacity="0.46"/>
</linearGradient>
<linearGradient id="paint1_linear_53_375" x1="60.5357" y1="65.4105" x2="60.5357" y2="86.8267" gradientUnits="userSpaceOnUse">
<stop stop-color="#6060DE"/>
<stop offset="1" stop-color="#6060DE" stop-opacity="0"/>
</linearGradient>
</defs>
</svg>
